<svg width="32" height="32" viewBox="0 0 32 32" fill="none" xmlns="http://www.w3.org/2000/svg">
<g clip-path="url(#clip0_240_11048)">
<path d="M0 2.66667C0 1.19391 1.19391 0 2.66667 0H29.3333C30.8061 0 32 1.19391 32 2.66667V29.3333C32 30.8061 30.8061 32 29.3333 32H2.66667C1.19391 32 0 30.8061 0 29.3333V2.66667Z" fill="#0078D2"/>
<path d="M7.51531 16.1485H24.9699V11.4077H7.51531V16.1485ZM7.51531 25.63C6.91531 25.63 6.40186 25.3981 5.97495 24.9343C5.54731 24.4697 5.3335 23.9114 5.3335 23.2596V9.03736C5.3335 8.38551 5.54731 7.82768 5.97495 7.36388C6.40186 6.89929 6.91531 6.66699 7.51531 6.66699H24.9699C25.5699 6.66699 26.0837 6.89929 26.5113 7.36388C26.9382 7.82768 27.1517 8.38551 27.1517 9.03736V16.1485H23.879C22.3699 16.1485 21.0837 16.7261 20.0204 17.8812C18.9564 19.0372 18.4244 20.4349 18.4244 22.0744V25.63H7.51531Z" fill="white"/>
<path d="M23.8767 24.4445V28H26.0586V24.4445H29.3313V22.0741H26.0586V18.5186H23.8767V22.0741H20.604V24.4445H23.8767Z" fill="white"/>
</g>
<defs>
<clipPath id="clip0_240_11048">
<rect width="32" height="32" fill="white"/>
</clipPath>
</defs>
</svg>
