<svg width="32" height="32" viewBox="0 0 32 32" fill="none" xmlns="http://www.w3.org/2000/svg">
<g clip-path="url(#clip0_240_11063)">
<path d="M0 2.66667C0 1.19391 1.19391 0 2.66667 0H29.3333C30.8061 0 32 1.19391 32 2.66667V29.3333C32 30.8061 30.8061 32 29.3333 32H2.66667C1.19391 32 0 30.8061 0 29.3333V2.66667Z" fill="#FF0000"/>
<path d="M16.0002 26.6668C14.5246 26.6668 13.1379 26.3867 11.8402 25.8263C10.5424 25.2667 9.4135 24.5068 8.4535 23.5468C7.4935 22.5868 6.73367 21.4579 6.17403 20.1602C5.61367 18.8624 5.3335 17.4757 5.3335 16.0002C5.3335 14.5246 5.61367 13.1379 6.17403 11.8402C6.73367 10.5424 7.4935 9.4135 8.4535 8.4535C9.4135 7.4935 10.5424 6.73332 11.8402 6.17296C13.1379 5.61332 14.5246 5.3335 16.0002 5.3335C17.4757 5.3335 18.8624 5.61332 20.1602 6.17296C21.4579 6.73332 22.5868 7.4935 23.5468 8.4535C24.5068 9.4135 25.2667 10.5424 25.8263 11.8402C26.3867 13.1379 26.6668 14.5246 26.6668 16.0002C26.6668 17.4757 26.3867 18.8624 25.8263 20.1602C25.2667 21.4579 24.5068 22.5868 23.5468 23.5468C22.5868 24.5068 21.4579 25.2667 20.1602 25.8263C18.8624 26.3867 17.4757 26.6668 16.0002 26.6668ZM16.0002 24.5335C18.3824 24.5335 20.4002 23.7068 22.0535 22.0535C23.7068 20.4002 24.5335 18.3824 24.5335 16.0002C24.5335 15.0402 24.3778 14.1157 24.0663 13.2268C23.7555 12.3379 23.3068 11.5202 22.7202 10.7735L10.7735 22.7202C11.5202 23.3068 12.3379 23.7555 13.2268 24.0663C14.1157 24.3778 15.0402 24.5335 16.0002 24.5335ZM9.28016 21.2268L21.2268 9.28016C20.4802 8.6935 19.6624 8.24479 18.7735 7.93403C17.8846 7.62256 16.9602 7.46683 16.0002 7.46683C13.6179 7.46683 11.6002 8.2935 9.94683 9.94683C8.2935 11.6002 7.46683 13.6179 7.46683 16.0002C7.46683 16.9602 7.62256 17.8846 7.93403 18.7735C8.24479 19.6624 8.6935 20.4802 9.28016 21.2268Z" fill="white"/>
</g>
<defs>
<clipPath id="clip0_240_11063">
<rect width="32" height="32" fill="white"/>
</clipPath>
</defs>
</svg>
