<svg width="32" height="32" viewBox="0 0 32 32" fill="none" xmlns="http://www.w3.org/2000/svg">
<g clip-path="url(#clip0_240_10969)">
<path d="M0 2.66667C0 1.19391 1.19391 0 2.66667 0H29.3333C30.8061 0 32 1.19391 32 2.66667V29.3333C32 30.8061 30.8061 32 29.3333 32H2.66667C1.19391 32 0 30.8061 0 29.3333V2.66667Z" fill="#0078D2"/>
<path d="M22.2322 24.3815C22.7011 24.8361 23.337 25.0916 24 25.0916V23.637L26.25 25.8188L24 28.0007V26.5461C21.79 26.5461 20 24.8103 20 22.6673C20 21.8722 20.25 21.1352 20.67 20.5243L21.76 21.5813C21.59 21.911 21.5 22.2794 21.5 22.6673C21.5 23.3103 21.7634 23.9269 22.2322 24.3815Z" fill="white"/>
<path d="M24 17.334V18.7885C26.21 18.7885 28 20.5243 28 22.6673C28 23.4625 27.75 24.1994 27.33 24.8103L26.24 23.7534C26.41 23.4237 26.5 23.0552 26.5 22.6673C26.5 22.0244 26.2366 21.4078 25.7678 20.9531C25.2989 20.4985 24.663 20.2431 24 20.2431V21.6976L21.75 19.5158L24 17.334Z" fill="white"/>
<path d="M7.51507 16.1485H24.9696V11.4077H7.51507V16.1485ZM7.51507 25.63C6.91507 25.63 6.40162 25.3981 5.97471 24.9343C5.54707 24.4697 5.33325 23.9114 5.33325 23.2596V9.03736C5.33325 8.38551 5.54707 7.82768 5.97471 7.36388C6.40162 6.89929 6.91507 6.66699 7.51507 6.66699H24.9696C25.5696 6.66699 26.0834 6.89929 26.5111 7.36388C26.938 7.82768 27.1514 8.38551 27.1514 9.03736V16.1485H23.8787C22.3696 16.1485 21.0834 16.7261 20.0202 17.8812C18.9562 19.0372 18.4242 20.4349 18.4242 22.0744V25.63H7.51507Z" fill="white"/>
</g>
<defs>
<clipPath id="clip0_240_10969">
<rect width="32" height="32" fill="white"/>
</clipPath>
</defs>
</svg>
