<svg width="32" height="32" viewBox="0 0 32 32" fill="none" xmlns="http://www.w3.org/2000/svg">
<g clip-path="url(#clip0_240_11051)">
<rect width="32" height="32" rx="2" fill="#0078D2"/>
<path d="M16.5 15.95C16.9833 15.4167 17.3543 14.8083 17.613 14.125C17.871 13.4417 18 12.7333 18 12C18 11.2667 17.871 10.5583 17.613 9.875C17.3543 9.19167 16.9833 8.58333 16.5 8.05C17.5 8.18333 18.3333 8.625 19 9.375C19.6667 10.125 20 11 20 12C20 13 19.6667 13.875 19 14.625C18.3333 15.375 17.5 15.8167 16.5 15.95ZM22 24V21C22 20.4 21.8667 19.8293 21.6 19.288C21.3333 18.746 20.9833 18.2667 20.55 17.85C21.4 18.15 22.1877 18.5373 22.913 19.012C23.6377 19.4873 24 20.15 24 21V24H22ZM24 17V15H22V13H24V11H26V13H28V15H26V17H24ZM12 16C10.9 16 9.95833 15.6083 9.175 14.825C8.39167 14.0417 8 13.1 8 12C8 10.9 8.39167 9.95833 9.175 9.175C9.95833 8.39167 10.9 8 12 8C13.1 8 14.0417 8.39167 14.825 9.175C15.6083 9.95833 16 10.9 16 12C16 13.1 15.6083 14.0417 14.825 14.825C14.0417 15.6083 13.1 16 12 16ZM4 24V21.2C4 20.6333 4.146 20.1123 4.438 19.637C4.72933 19.1623 5.11667 18.8 5.6 18.55C6.63333 18.0333 7.68333 17.6457 8.75 17.387C9.81667 17.129 10.9 17 12 17C13.1 17 14.1833 17.129 15.25 17.387C16.3167 17.6457 17.3667 18.0333 18.4 18.55C18.8833 18.8 19.2707 19.1623 19.562 19.637C19.854 20.1123 20 20.6333 20 21.2V24H4Z" fill="white"/>
</g>
<defs>
<clipPath id="clip0_240_11051">
<rect width="32" height="32" fill="white"/>
</clipPath>
</defs>
</svg>
