<svg width="32" height="32" viewBox="0 0 32 32" fill="none" xmlns="http://www.w3.org/2000/svg">
<g clip-path="url(#clip0_240_11054)">
<path d="M0 2.66667C0 1.19391 1.19391 0 2.66667 0H29.3333C30.8061 0 32 1.19391 32 2.66667V29.3333C32 30.8061 30.8061 32 29.3333 32H2.66667C1.19391 32 0 30.8061 0 29.3333V2.66667Z" fill="#0078D2"/>
<path d="M5.3335 24V21.2C5.3335 20.6333 5.47507 20.1123 5.75822 19.637C6.04073 19.1623 6.41632 18.8 6.88501 18.55C7.88703 18.0333 8.90521 17.6457 9.93956 17.387C10.9739 17.129 12.0244 17 13.0911 17C14.1577 17 15.2082 17.129 16.2426 17.387C17.2769 17.6457 18.2951 18.0333 19.2971 18.55C19.7658 18.8 20.1414 19.1623 20.4239 19.637C20.7071 20.1123 20.8486 20.6333 20.8486 21.2V24H5.3335ZM22.788 24V21C22.788 20.2667 22.5902 19.5623 22.1946 18.887C21.7983 18.2123 21.2365 17.6333 20.5093 17.15C21.3335 17.25 22.1093 17.4207 22.8365 17.662C23.5638 17.904 24.2426 18.2 24.8729 18.55C25.4547 18.8833 25.8992 19.254 26.2062 19.662C26.5133 20.0707 26.6668 20.5167 26.6668 21V24H22.788ZM13.0911 16C12.0244 16 11.1113 15.6083 10.3517 14.825C9.59208 14.0417 9.21228 13.1 9.21228 12C9.21228 10.9 9.59208 9.95833 10.3517 9.175C11.1113 8.39167 12.0244 8 13.0911 8C14.1577 8 15.0709 8.39167 15.8305 9.175C16.5901 9.95833 16.9699 10.9 16.9699 12C16.9699 13.1 16.5901 14.0417 15.8305 14.825C15.0709 15.6083 14.1577 16 13.0911 16ZM22.788 12C22.788 13.1 22.4082 14.0417 21.6486 14.825C20.8891 15.6083 19.9759 16 18.9093 16C18.7315 16 18.5052 15.9793 18.2305 15.938C17.9557 15.896 17.7295 15.85 17.5517 15.8C17.988 15.2667 18.3232 14.675 18.5573 14.025C18.7919 13.375 18.9093 12.7 18.9093 12C18.9093 11.3 18.7919 10.625 18.5573 9.975C18.3232 9.325 17.988 8.73333 17.5517 8.2C17.7779 8.11667 18.0042 8.06233 18.2305 8.037C18.4567 8.01233 18.683 8 18.9093 8C19.9759 8 20.8891 8.39167 21.6486 9.175C22.4082 9.95833 22.788 10.9 22.788 12Z" fill="white"/>
</g>
<defs>
<clipPath id="clip0_240_11054">
<rect width="32" height="32" fill="white"/>
</clipPath>
</defs>
</svg>
