<svg width="32" height="32" viewBox="0 0 32 32" fill="none" xmlns="http://www.w3.org/2000/svg">
<g clip-path="url(#clip0_240_11060)">
<path d="M0 2.66667C0 1.19391 1.19391 0 2.66667 0H29.3333C30.8061 0 32 1.19391 32 2.66667V29.3333C32 30.8061 30.8061 32 29.3333 32H2.66667C1.19391 32 0 30.8061 0 29.3333V2.66667Z" fill="#FF0000"/>
<path d="M25.2856 28.0002L21.5498 24.2891V24.476H4.34938V21.4858C4.34938 20.8807 4.50634 20.3243 4.82025 19.8167C5.13344 19.3098 5.54983 18.9228 6.06943 18.6558C7.18029 18.1041 8.30907 17.6901 9.45577 17.4138C10.6025 17.1383 11.7671 17.0006 12.9496 17.0006C13.1646 17.0006 13.3843 17.0048 13.6086 17.0134C13.8322 17.0226 14.0515 17.0362 14.2665 17.054L13.1377 15.9326H12.9496C11.7671 15.9326 10.7548 15.5144 9.91265 14.6778C9.07055 13.8413 8.6495 12.8357 8.6495 11.6609V11.4741L4 6.85529L5.53191 5.3335L26.8175 26.4784L25.2856 28.0002ZM21.1736 17.1607C22.0873 17.2675 22.9474 17.4498 23.7536 17.7075C24.5599 17.966 25.3124 18.2821 26.0112 18.6558C26.6562 19.0118 27.1489 19.4077 27.4894 19.8434C27.8298 20.2798 28 20.7561 28 21.2722V24.476H27.8656L23.5655 20.2043C23.4043 19.617 23.1222 19.0609 22.7195 18.5362C22.316 18.0108 21.8007 17.5523 21.1736 17.1607ZM18.3785 15.0516C18.7189 14.5532 18.9741 14.0193 19.1439 13.4497C19.3145 12.8802 19.3998 12.2839 19.3998 11.6609C19.3998 10.9134 19.2697 10.1925 19.0095 9.4984C18.7501 8.80425 18.3785 8.17239 17.8947 7.60283C18.1456 7.51384 18.3964 7.45582 18.6473 7.42876C18.8981 7.40242 19.1489 7.38925 19.3998 7.38925C20.5823 7.38925 21.5946 7.80752 22.4367 8.64406C23.2788 9.4806 23.6999 10.4862 23.6999 11.6609C23.6999 12.8357 23.2566 13.8413 22.3701 14.6778C21.4828 15.5144 20.4479 15.9326 19.2654 15.9326L18.3785 15.0516ZM16.8197 13.5031L11.0952 7.81642C11.3819 7.67403 11.6775 7.56723 11.9821 7.49604C12.2867 7.42485 12.6092 7.38925 12.9496 7.38925C14.1321 7.38925 15.1445 7.80752 15.9866 8.64406C16.8287 9.4806 17.2497 10.4862 17.2497 11.6609C17.2497 11.9991 17.2139 12.3195 17.1422 12.6221C17.0705 12.9246 16.963 13.2183 16.8197 13.5031Z" fill="white"/>
</g>
<defs>
<clipPath id="clip0_240_11060">
<rect width="32" height="32" fill="white"/>
</clipPath>
</defs>
</svg>
