<svg width="32" height="32" viewBox="0 0 32 32" fill="none" xmlns="http://www.w3.org/2000/svg">
<g clip-path="url(#clip0_240_10963)">
<path d="M0 2.66667C0 1.19391 1.19391 0 2.66667 0H29.3333C30.8061 0 32 1.19391 32 2.66667V29.3333C32 30.8061 30.8061 32 29.3333 32H2.66667C1.19391 32 0 30.8061 0 29.3333V2.66667Z" fill="#0078D2"/>
<path d="M21.8643 14.547C21.2776 13.9847 20.4819 13.6689 19.6522 13.6689C18.8224 13.6689 18.0267 13.9847 17.44 14.547C16.8533 15.1093 16.5237 15.8718 16.5237 16.667C16.5237 17.4621 16.8533 18.2247 17.44 18.787C17.7305 19.0654 18.0754 19.2862 18.455 19.4369C18.8345 19.5876 19.2413 19.6651 19.6522 19.6651C20.063 19.6651 20.4698 19.5876 20.8494 19.4369C21.229 19.2862 21.5738 19.0654 21.8643 18.787C22.1549 18.5086 22.3853 18.1781 22.5425 17.8143C22.6997 17.4506 22.7807 17.0607 22.7807 16.667C22.7807 16.2733 22.6997 15.8834 22.5425 15.5197C22.3853 15.1559 22.1549 14.8254 21.8643 14.547ZM11.3043 10.667V22.667H28V10.667H11.3043ZM25.913 18.667C25.36 18.667 24.8278 18.877 24.4417 19.257C24.0452 19.627 23.8261 20.137 23.8261 20.667H15.4783C15.4783 20.137 15.2591 19.627 14.8626 19.257C14.4765 18.877 13.9443 18.667 13.3913 18.667V14.667C13.9443 14.667 14.4765 14.457 14.8626 14.077C15.2591 13.707 15.4783 13.197 15.4783 12.667H23.8261C23.8261 13.197 24.0452 13.707 24.4417 14.077C24.8278 14.457 25.36 14.667 25.913 14.667V18.667ZM9.21739 12.667H7.13043C6.55652 12.667 6.08696 12.217 6.08696 11.667C6.08696 11.117 6.55652 10.667 7.13043 10.667H9.21739V12.667ZM9.21739 17.667H6.08696C5.51304 17.667 5.04348 17.217 5.04348 16.667C5.04348 16.117 5.51304 15.667 6.08696 15.667H9.21739V17.667ZM9.21739 22.667H5.04348C4.46748 22.667 4 22.217 4 21.667C4 21.117 4.46748 20.667 5.04348 20.667H9.21739V22.667Z" fill="white"/>
</g>
<defs>
<clipPath id="clip0_240_10963">
<rect width="32" height="32" fill="white"/>
</clipPath>
</defs>
</svg>
