<svg width="236" height="43" viewBox="0 0 236 43" fill="none" xmlns="http://www.w3.org/2000/svg">
<path d="M21.0555 32.4454C17.8916 31.9847 13.0032 30.522 13.1703 25.3792C13.3379 20.2304 17.7518 14.4882 21.0555 10.1682V0.125C8.23161 0.377067 -0.651494 10.9095 0.0374574 22.2467C0.743543 33.8733 9.48223 41.9781 21.0555 42.6292V32.4454Z" fill="white"/>
<path d="M29.0791 25.4576C28.9099 20.2488 24.333 14.4252 21.0537 10.1289V32.4603C24.1579 32.0481 29.2485 30.6655 29.0791 25.4576Z" fill="white"/>
<path d="M22.3525 0V1.41718C32.7558 2.03932 41.0308 10.7333 41.0308 21.3347C41.0308 31.9361 32.7558 40.6301 22.3525 41.2523V42.6695C33.5326 42.0467 42.4387 32.7166 42.4387 21.3347C42.4387 9.9532 33.5326 0.623448 22.3525 0Z" fill="white"/>
<path d="M58.1679 19.0764L59.3654 14.5891C59.3654 14.5891 59.7953 12.4062 57.5723 12.4062H53.8299C52.1294 12.4062 51.0134 14.5332 51.0134 14.5332L47.4246 27.9857C47.4246 27.9857 47.0045 30.5701 48.9629 30.5701H52.7895C54.7268 30.5701 55.7644 28.0867 55.7644 28.0867L57.1975 22.7148H53.7539L52.4372 27.6496H50.9578L54.2459 15.3255H55.725L54.7247 19.0764H58.1679ZM74.9611 12.4062H78.5171L77.9439 17.3161L80.0535 12.4062H83.6105L79.0623 21.0193L78.9346 30.5701H75.3769L76.0055 24.7411L73.483 30.5701H69.9315L74.9133 21.0193L74.9611 12.4062ZM93.5696 30.5701H97.0129L99.1565 22.5353H100.637L98.4931 30.5701H101.937L106.783 12.4062H103.339L101.416 19.6156H99.9357L101.859 12.4062H98.4153L93.5696 30.5701ZM110.214 12.4062H116.245L115.466 15.3255H112.879L111.734 19.6156H114.321L113.542 22.5353H110.955L109.591 27.6496H112.178L111.399 30.5701H105.368L110.214 12.4062ZM130.094 21.3687L130.28 20.67C130.28 20.67 131.591 15.2632 129.408 15.2632H126.799L127.561 12.4062H124.117L123.355 15.2632H120.662C118.551 15.2632 116.882 21.0691 116.882 21.0691L116.709 21.7176C116.709 21.7176 115.231 27.785 117.153 27.785H120.014L119.271 30.5701H122.715L123.458 27.785H126.193C128.232 27.785 130.094 21.3687 130.094 21.3687ZM120.793 24.865H119.314L121.092 18.1999H122.571L120.793 24.865ZM125.717 24.865H124.238L126.016 18.1999H127.495L125.717 24.865ZM146.017 12.4062H152.048L151.27 15.3255H148.682L147.537 19.6156H150.125L149.346 22.5353H146.758L145.394 27.6496H147.982L147.203 30.5701H141.171L146.017 12.4062ZM150.151 30.5701H153.595L157.662 15.3255H160.249L161.028 12.4062H154.997L150.151 30.5701ZM173.922 17.7344L174.763 14.578C174.763 14.578 175.481 12.4062 177.676 12.4062H181.397C183.466 12.4062 183.129 14.5832 183.129 14.5832L181.873 19.2911C181.469 20.8051 179.745 20.3214 179.541 21.088C179.336 21.855 181.383 21.1288 181.008 22.5333L179.513 28.136C179.513 28.136 178.698 30.5701 176.551 30.5701H172.831C170.727 30.5701 171.16 28.0847 171.16 28.0847L172.148 24.383H175.591L174.72 27.6496H176.199L177.564 22.5353H175.047L175.826 19.6156H178.343L179.487 15.3255H178.008L177.365 17.7344H173.922ZM200.713 19.1036L201.72 15.3265H205.932L206.711 12.4062H199.056L194.21 30.5701H200.264C202.194 30.5701 204.07 24.9763 204.07 24.9763L204.33 24.0013C204.33 24.0013 205.445 19.1036 203.363 19.1036H200.713ZM199.933 22.0241H201.413L199.912 27.6496H198.433L199.933 22.0241ZM220.516 12.4062H223.96L219.114 30.5701H215.67L220.516 12.4062ZM215.595 25.1307L215.831 24.2455C215.831 24.2455 216.962 19.1122 214.886 19.1122H212.277L214.066 12.4062H210.622L205.776 30.5695H211.811C213.892 30.5695 215.595 25.1307 215.595 25.1307ZM211.479 27.6496H210L211.499 22.032H212.978L211.479 27.6496ZM227.644 12.4062H236L235.221 15.3255H232.564L228.497 30.5701H225.068L229.135 15.3255H226.865L227.644 12.4062ZM193.803 19.0764L195.001 14.5891C195.001 14.5891 195.43 12.4062 193.207 12.4062H189.465C187.764 12.4062 186.648 14.5332 186.648 14.5332L183.059 27.9857C183.059 27.9857 182.639 30.5701 184.598 30.5701H188.424C190.362 30.5701 191.4 28.0867 191.4 28.0867L192.833 22.7148H189.389L188.072 27.6496H186.592L189.88 15.3255H191.359L190.359 19.0764H193.803ZM163.76 30.5701L164.551 27.6047H163.071L162.28 30.5701H158.836L163.088 14.6355C163.088 14.6355 163.682 12.4062 166.016 12.4062H172.05L167.204 30.5701H163.76ZM167.827 15.3265H166.348L163.851 24.6841H165.33L167.827 15.3265ZM66.942 30.5701L71.788 12.4062H65.7547C63.4203 12.4062 62.8263 14.6355 62.8263 14.6355L58.5754 30.5701H62.019L62.8101 27.6047H64.2897L63.4984 30.5701H66.942ZM65.0687 24.6841H63.5893L66.0858 15.3265H67.5651L65.0687 24.6841ZM86.6225 30.5701L87.4136 27.6047H85.9342L85.143 30.5701H81.6995L85.9505 14.6355C85.9505 14.6355 86.5444 12.4062 88.8787 12.4062H94.912L90.0661 30.5701H86.6225ZM90.6893 15.3265H89.2098L86.7136 24.6841H88.1928L90.6893 15.3265ZM133.998 15.4802H136.267L132.2 30.724H135.63L139.697 15.4802H142.353L143.132 12.5597H134.777L133.998 15.4802Z" fill="white"/>
</svg>
