<svg width="166" height="30" viewBox="0 0 166 30" fill="none" xmlns="http://www.w3.org/2000/svg">
<path d="M14.8103 22.8117C12.5848 22.4878 9.14632 21.4594 9.26385 17.8436C9.38173 14.2236 12.4864 10.1864 14.8103 7.14904V0.0878906C5.79003 0.265114 -0.458254 7.67022 0.0263471 15.6412C0.523001 23.8156 6.6697 29.5139 14.8103 29.9717V22.8117Z" fill="white"/>
<path d="M20.4538 17.8984C20.3348 14.2362 17.1155 10.1417 14.8088 7.12109V22.8218C16.9923 22.532 20.573 21.5599 20.4538 17.8984Z" fill="white"/>
<path d="M15.7224 0V0.996389C23.04 1.4338 28.8605 7.54638 28.8605 15C28.8605 22.4536 23.04 28.5662 15.7224 29.0036V30C23.5863 29.5621 29.8508 23.0023 29.8508 15C29.8508 6.99789 23.5863 0.438333 15.7224 0Z" fill="white"/>
<path d="M40.9147 13.4123L41.757 10.2574C41.757 10.2574 42.0594 8.72266 40.4958 8.72266H37.8634C36.6673 8.72266 35.8823 10.2181 35.8823 10.2181L33.3579 19.6763C33.3579 19.6763 33.0625 21.4933 34.44 21.4933H37.1315C38.4942 21.4933 39.2241 19.7472 39.2241 19.7472L40.2321 15.9704H37.8099L36.8837 19.4399H35.8431L38.156 10.7751H39.1963L38.4927 13.4123H40.9147ZM52.7268 8.72266H55.2281L54.8249 12.1747L56.3088 8.72266H58.8108L55.6116 14.7783L55.5217 21.4933H53.0193L53.4614 17.3951L51.6872 21.4933H49.1891L52.6932 14.7783L52.7268 8.72266ZM65.8159 21.4933H68.2379L69.7456 15.8442H70.787L69.279 21.4933H71.7015L75.11 8.72266H72.6878L71.3349 13.7914H70.2937L71.6465 8.72266H69.2243L65.8159 21.4933ZM77.5232 8.72266H81.7653L81.2173 10.7751H79.3977L78.5926 13.7914H80.4124L79.8645 15.8442H78.0448L77.085 19.4399H78.9047L78.3568 21.4933H74.1146L77.5232 8.72266ZM91.5066 15.024L91.6376 14.5328C91.6376 14.5328 92.56 10.7313 91.024 10.7313H89.1889L89.7248 8.72266H87.3026L86.7665 10.7313H84.872C83.3876 10.7313 82.2135 14.8133 82.2135 14.8133L82.0919 15.2693C82.0919 15.2693 81.0526 19.5351 82.4039 19.5351H84.4167L83.8941 21.4933H86.3163L86.839 19.5351H88.763C90.1973 19.5351 91.5066 15.024 91.5066 15.024ZM84.9647 17.4822H83.9242L85.1748 12.796H86.2153L84.9647 17.4822ZM88.428 17.4822H87.3874L88.6382 12.796H89.6789L88.428 17.4822ZM102.707 8.72266H106.949L106.402 10.7751H104.581L103.776 13.7914H105.597L105.049 15.8442H103.228L102.269 19.4399H104.089L103.541 21.4933H99.2983L102.707 8.72266ZM105.615 21.4933H108.037L110.898 10.7751H112.718L113.265 8.72266H109.023L105.615 21.4933ZM122.335 12.4688L122.927 10.2496C122.927 10.2496 123.432 8.72266 124.976 8.72266H127.593C129.048 8.72266 128.811 10.2533 128.811 10.2533L127.928 13.5632C127.643 14.6277 126.431 14.2877 126.287 14.8266C126.143 15.3659 127.583 14.8553 127.319 15.8428L126.268 19.7819C126.268 19.7819 125.694 21.4933 124.184 21.4933H121.567C120.087 21.4933 120.392 19.7459 120.392 19.7459L121.087 17.1433H123.509L122.896 19.4399H123.937L124.896 15.8442H123.126L123.674 13.7914H125.444L126.249 10.7751H125.209L124.757 12.4688H122.335ZM141.179 13.4314L141.888 10.7758H144.85L145.399 8.72266H140.014L136.605 21.4933H140.864C142.221 21.4933 143.541 17.5604 143.541 17.5604L143.724 16.8749C143.724 16.8749 144.508 13.4314 143.044 13.4314H141.179ZM140.631 15.4848H141.672L140.616 19.4399H139.575L140.631 15.4848ZM155.109 8.72266H157.531L154.122 21.4933H151.7L155.109 8.72266ZM151.647 17.669L151.813 17.0466C151.813 17.0466 152.608 13.4375 151.148 13.4375H149.313L150.571 8.72266H148.149L144.741 21.4928H148.985C150.45 21.4928 151.647 17.669 151.647 17.669ZM148.752 19.4399H147.712L148.766 15.4903H149.806L148.752 19.4399ZM160.122 8.72266H166L165.452 10.7751H163.583L160.723 21.4933H158.31L161.171 10.7751H159.574L160.122 8.72266ZM136.319 13.4123L137.161 10.2574C137.161 10.2574 137.463 8.72266 135.9 8.72266H133.267C132.071 8.72266 131.286 10.2181 131.286 10.2181L128.762 19.6763C128.762 19.6763 128.466 21.4933 129.844 21.4933H132.536C133.899 21.4933 134.629 19.7472 134.629 19.7472L135.637 15.9704H133.214L132.288 19.4399H131.247L133.56 10.7751H134.6L133.896 13.4123H136.319ZM115.187 21.4933L115.744 19.4083H114.703L114.146 21.4933H111.724L114.714 10.29C114.714 10.29 115.132 8.72266 116.774 8.72266H121.018L117.609 21.4933H115.187ZM118.048 10.7758H117.007L115.251 17.355H116.292L118.048 10.7758ZM47.0863 21.4933L50.4949 8.72266H46.2512C44.6091 8.72266 44.1913 10.29 44.1913 10.29L41.2013 21.4933H43.6235L44.18 19.4083H45.2207L44.6641 21.4933H47.0863ZM45.7686 17.355H44.728L46.4841 10.7758H47.5245L45.7686 17.355ZM60.9294 21.4933L61.4858 19.4083H60.4452L59.8887 21.4933H57.4666L60.4567 10.29C60.4567 10.29 60.8744 8.72266 62.5163 8.72266H66.7601L63.3516 21.4933H60.9294ZM63.7899 10.7758H62.7492L60.9934 17.355H62.0339L63.7899 10.7758ZM94.2528 10.8839H95.8487L92.9881 21.6015H95.4008L98.2614 10.8839H100.13L100.677 8.83051H94.801L94.2528 10.8839Z" fill="white"/>
</svg>
