<svg width="32" height="32" viewBox="0 0 32 32" fill="none" xmlns="http://www.w3.org/2000/svg">
<g clip-path="url(#clip0_240_10972)">
<path d="M0 2.66667C0 1.19391 1.19391 0 2.66667 0H29.3333C30.8061 0 32 1.19391 32 2.66667V29.3333C32 30.8061 30.8061 32 29.3333 32H2.66667C1.19391 32 0 30.8061 0 29.3333V2.66667Z" fill="#0078D2"/>
<path d="M6.66675 11.3332V8.99984C6.66675 8.381 6.91258 7.78751 7.35017 7.34992C7.78775 6.91234 8.38124 6.6665 9.00008 6.6665H11.3334M6.66675 20.6665V22.9998C6.66675 23.6187 6.91258 24.2122 7.35017 24.6498C7.78775 25.0873 8.38124 25.3332 9.00008 25.3332H11.3334M20.6667 6.6665H23.0001C23.6189 6.6665 24.2124 6.91234 24.65 7.34992C25.0876 7.78751 25.3334 8.381 25.3334 8.99984V11.3332M20.6667 25.3332H23.0001C23.6189 25.3332 24.2124 25.0873 24.65 24.6498C25.0876 24.2122 25.3334 23.6187 25.3334 22.9998V20.6665" stroke="white" stroke-width="2" stroke-linecap="round" stroke-linejoin="round"/>
</g>
<defs>
<clipPath id="clip0_240_10972">
<rect width="32" height="32" fill="white"/>
</clipPath>
</defs>
</svg>
