<svg width="32" height="32" viewBox="0 0 32 32" fill="none" xmlns="http://www.w3.org/2000/svg">
<g clip-path="url(#clip0_240_11045)">
<path d="M0 2.66667C0 1.19391 1.19391 0 2.66667 0H29.3333C30.8061 0 32 1.19391 32 2.66667V29.3333C32 30.8061 30.8061 32 29.3333 32H2.66667C1.19391 32 0 30.8061 0 29.3333V2.66667Z" fill="#0078D2"/>
<path d="M17.2446 18.3021H8.729V15.6589H17.1795C17.8479 15.6589 18.3861 15.5243 18.7941 15.2552C19.2021 14.9774 19.5016 14.5955 19.6925 14.1094C19.8835 13.6146 19.979 13.0417 19.979 12.3906C19.979 11.809 19.8835 11.2665 19.6925 10.763C19.5016 10.2509 19.2021 9.83854 18.7941 9.52604C18.3948 9.20486 17.874 9.04427 17.2316 9.04427H14.1196V25.3333H10.9816V6.375H17.2446C18.4859 6.375 19.545 6.63108 20.4217 7.14323C21.3071 7.65538 21.9842 8.36285 22.453 9.26562C22.9217 10.1684 23.1561 11.2014 23.1561 12.3646C23.1561 13.6146 22.9174 14.6823 22.4399 15.5677C21.9625 16.4531 21.2811 17.1302 20.3957 17.599C19.5189 18.0677 18.4686 18.3021 17.2446 18.3021ZM17.5311 19.6562V22.3125H8.729V19.6562H17.5311Z" fill="white"/>
</g>
<defs>
<clipPath id="clip0_240_11045">
<rect width="32" height="32" fill="white"/>
</clipPath>
</defs>
</svg>
