<svg width="32" height="32" viewBox="0 0 32 32" fill="none" xmlns="http://www.w3.org/2000/svg">
<g clip-path="url(#clip0_240_10960)">
<path d="M0 2.66667C0 1.19391 1.19391 0 2.66667 0H29.3333C30.8061 0 32 1.19391 32 2.66667V29.3333C32 30.8061 30.8061 32 29.3333 32H2.66667C1.19391 32 0 30.8061 0 29.3333V2.66667Z" fill="#0078D2"/>
<path d="M14 16C12.9 16 11.9583 15.6083 11.175 14.825C10.3917 14.0417 10 13.1 10 12C10 10.9 10.3917 9.95833 11.175 9.175C11.9583 8.39167 12.9 8 14 8C15.1 8 16.0417 8.39167 16.825 9.175C17.6083 9.95833 18 10.9 18 12C18 13.1 17.6083 14.0417 16.825 14.825C16.0417 15.6083 15.1 16 14 16ZM6 24V21.2C6 20.6333 6.146 20.1123 6.438 19.637C6.72933 19.1623 7.11667 18.8 7.6 18.55C8.63333 18.0333 9.68333 17.6457 10.75 17.387C11.8167 17.129 12.9 17 14 17C15.1 17 16.1833 17.129 17.25 17.387C18.3167 17.6457 19.3667 18.0333 20.4 18.55C20.8833 18.8 21.2707 19.1623 21.562 19.637C21.854 20.1123 22 20.6333 22 21.2V24H6Z" fill="white"/>
<path d="M23.5555 15.1114V17.3337H25.7777V15.1114H27.9999V12.8892H25.7777V10.667H23.5555V12.8892H21.3333V15.1114H23.5555Z" fill="white"/>
</g>
<defs>
<clipPath id="clip0_240_10960">
<rect width="32" height="32" fill="white"/>
</clipPath>
</defs>
</svg>
