<svg width="48" height="48" viewBox="0 0 48 48" fill="none" xmlns="http://www.w3.org/2000/svg">
<rect width="48" height="48" rx="10" fill="#FAEFE4"/>
<path d="M18.1665 30.9997C16.8832 30.9997 15.8448 32.0497 15.8448 33.333C15.8448 34.6163 16.8832 35.6663 18.1665 35.6663C19.4498 35.6663 20.4998 34.6163 20.4998 33.333C20.4998 32.0497 19.4498 30.9997 18.1665 30.9997ZM11.1665 12.333V14.6663H13.4998L17.6998 23.5213L16.1248 26.3797C15.9382 26.7063 15.8332 27.0913 15.8332 27.4997C15.8332 28.783 16.8832 29.833 18.1665 29.833H32.1665V27.4997H18.6565C18.4932 27.4997 18.3648 27.3713 18.3648 27.208L18.3998 27.068L19.4498 25.1663H28.1415C29.0165 25.1663 29.7865 24.688 30.1832 23.9647L34.3598 16.393C34.4561 16.215 34.5045 16.015 34.5004 15.8126C34.4963 15.6103 34.4397 15.4124 34.3363 15.2385C34.2328 15.0645 34.086 14.9203 33.9102 14.82C33.7344 14.7198 33.5356 14.6668 33.3332 14.6663H16.0782L14.9815 12.333H11.1665ZM29.8332 30.9997C28.5498 30.9997 27.5115 32.0497 27.5115 33.333C27.5115 34.6163 28.5498 35.6663 29.8332 35.6663C31.1165 35.6663 32.1665 34.6163 32.1665 33.333C32.1665 32.0497 31.1165 30.9997 29.8332 30.9997Z" fill="black"/>
</svg>
