<svg width="48" height="48" viewBox="0 0 48 48" fill="none" xmlns="http://www.w3.org/2000/svg">
<rect width="48" height="48" rx="10" fill="#EAF5FF"/>
<path d="M15.8332 34.5C15.5026 34.5 15.2253 34.388 15.0013 34.164C14.7781 33.9408 14.6665 33.6639 14.6665 33.3333V15.8333C14.6665 15.1917 14.8952 14.6422 15.3525 14.1848C15.8091 13.7283 16.3582 13.5 16.9998 13.5H23.9998C24.6415 13.5 25.191 13.7283 25.6483 14.1848C26.1049 14.6422 26.3332 15.1917 26.3332 15.8333V24H27.4998C28.1415 24 28.691 24.2283 29.1483 24.6848C29.6049 25.1422 29.8332 25.6917 29.8332 26.3333V31.5833C29.8332 31.9139 29.9452 32.1908 30.1692 32.414C30.3924 32.638 30.6693 32.75 30.9998 32.75C31.3304 32.75 31.6073 32.638 31.8305 32.414C32.0545 32.1908 32.1665 31.9139 32.1665 31.5833V23.1833C31.9915 23.2806 31.8068 23.3436 31.6123 23.3723C31.4179 23.4019 31.2137 23.4167 30.9998 23.4167C30.1832 23.4167 29.4929 23.1347 28.929 22.5708C28.3651 22.0069 28.0832 21.3167 28.0832 20.5C28.0832 19.8778 28.2535 19.3186 28.5942 18.8223C28.9341 18.3269 29.3859 17.9722 29.9498 17.7583L28.1123 15.9208C27.9373 15.7458 27.8498 15.5417 27.8498 15.3083C27.8498 15.075 27.9373 14.8708 28.1123 14.6958C28.2873 14.5208 28.4915 14.4333 28.7248 14.4333C28.9582 14.4333 29.1623 14.5111 29.3373 14.6667L33.0415 18.2833C33.3332 18.575 33.5517 18.9153 33.6972 19.3042C33.8434 19.6931 33.9165 20.0917 33.9165 20.5V31.5833C33.9165 32.4 33.6346 33.0903 33.0707 33.6542C32.5068 34.2181 31.8165 34.5 30.9998 34.5C30.1832 34.5 29.4929 34.2181 28.929 33.6542C28.3651 33.0903 28.0832 32.4 28.0832 31.5833V25.75H26.3332V33.3333C26.3332 33.6639 26.2216 33.9408 25.9983 34.164C25.7743 34.388 25.4971 34.5 25.1665 34.5H15.8332ZM16.9998 21.6667H23.9998V15.8333H16.9998V21.6667ZM30.9998 21.6667C31.3304 21.6667 31.6073 21.5547 31.8305 21.3307C32.0545 21.1074 32.1665 20.8306 32.1665 20.5C32.1665 20.1694 32.0545 19.8922 31.8305 19.6682C31.6073 19.4449 31.3304 19.3333 30.9998 19.3333C30.6693 19.3333 30.3924 19.4449 30.1692 19.6682C29.9452 19.8922 29.8332 20.1694 29.8332 20.5C29.8332 20.8306 29.9452 21.1074 30.1692 21.3307C30.3924 21.5547 30.6693 21.6667 30.9998 21.6667Z" fill="black"/>
</svg>
