<svg width="32" height="32" viewBox="0 0 32 32" fill="none" xmlns="http://www.w3.org/2000/svg">
<g clip-path="url(#clip0_240_10966)">
<path d="M0 2.66667C0 1.19391 1.19391 0 2.66667 0H29.3333C30.8061 0 32 1.19391 32 2.66667V29.3333C32 30.8061 30.8061 32 29.3333 32H2.66667C1.19391 32 0 30.8061 0 29.3333V2.66667Z" fill="#0078D2"/>
<path d="M12 17.2219H17.3333V18.7775H12V17.2219ZM12 13.333H20V14.8886H12V13.333ZM12 21.1108H15.3333V22.6663H12V21.1108Z" fill="white"/>
<path d="M22.5455 7.61872H20.3636V6.85682C20.3636 6.45268 20.2104 6.06509 19.9376 5.77932C19.6648 5.49355 19.2949 5.33301 18.9091 5.33301H13.0909C12.7051 5.33301 12.3352 5.49355 12.0624 5.77932C11.7896 6.06509 11.6364 6.45268 11.6364 6.85682V7.61872H9.45455C9.06878 7.61872 8.69881 7.77927 8.42603 8.06504C8.15325 8.35081 8 8.73839 8 9.14253V25.1425C8 25.5467 8.15325 25.9343 8.42603 26.22C8.69881 26.5058 9.06878 26.6663 9.45455 26.6663H22.5455C22.9312 26.6663 23.3012 26.5058 23.574 26.22C23.8468 25.9343 24 25.5467 24 25.1425V9.14253C24 8.73839 23.8468 8.35081 23.574 8.06504C23.3012 7.77927 22.9312 7.61872 22.5455 7.61872ZM13.0909 6.85682H18.9091V9.90444H13.0909V6.85682ZM22.5455 25.1425H9.45455V9.14253H11.6364V11.4282H20.3636V9.14253H22.5455V25.1425Z" fill="white"/>
</g>
<defs>
<clipPath id="clip0_240_10966">
<rect width="32" height="32" fill="white"/>
</clipPath>
</defs>
</svg>
