<svg width="32" height="32" viewBox="0 0 32 32" fill="none" xmlns="http://www.w3.org/2000/svg">
<g clip-path="url(#clip0_240_11066)">
<path d="M0 2.66667C0 1.19391 1.19391 0 2.66667 0H29.3333C30.8061 0 32 1.19391 32 2.66667V29.3333C32 30.8061 30.8061 32 29.3333 32H2.66667C1.19391 32 0 30.8061 0 29.3333V2.66667Z" fill="#119B14"/>
<path fill-rule="evenodd" clip-rule="evenodd" d="M8.45769 23.5426C9.44818 24.5331 10.6241 25.3188 11.9182 25.8549C13.2123 26.3909 14.5994 26.6668 16.0002 26.6668C17.4009 26.6668 18.788 26.3909 20.0821 25.8549C21.3763 25.3188 22.5521 24.5331 23.5426 23.5426C24.5331 22.5521 25.3188 21.3763 25.8549 20.0821C26.3909 18.788 26.6668 17.4009 26.6668 16.0002C26.6668 14.5994 26.3909 13.2123 25.8549 11.9182C25.3188 10.6241 24.5331 9.44818 23.5426 8.45769C21.5422 6.4573 18.8291 5.3335 16.0002 5.3335C13.1712 5.3335 10.4581 6.4573 8.45769 8.45769C6.4573 10.4581 5.3335 13.1712 5.3335 16.0002C5.3335 18.8291 6.4573 21.5422 8.45769 23.5426ZM11.0307 22.6455C12.6286 23.8414 14.6041 24.4213 16.5949 24.2788C18.5857 24.1363 20.4584 23.281 21.8697 21.8697C23.281 20.4584 24.1363 18.5857 24.2788 16.5949C24.4213 14.6041 23.8414 12.6286 22.6455 11.0307L19.3518 14.3243C19.1283 14.5402 18.8289 14.6597 18.5182 14.657C18.2074 14.6543 17.9102 14.5296 17.6904 14.3099C17.4707 14.0901 17.3461 13.7929 17.3434 13.4821C17.3407 13.1714 17.4601 12.872 17.676 12.6485L20.9684 9.35487C19.3702 8.16213 17.3958 7.58482 15.4068 7.72862C13.4177 7.87242 11.5469 8.7277 10.1368 10.1379C8.72674 11.5482 7.87165 13.419 7.72805 15.4081C7.58446 17.3972 8.16196 19.3715 9.35487 20.9696L12.6485 17.676C12.872 17.4601 13.1714 17.3407 13.4821 17.3434C13.7929 17.3461 14.0901 17.4707 14.3099 17.6904C14.5296 17.9102 14.6543 18.2074 14.657 18.5182C14.6597 18.8289 14.5402 19.1283 14.3243 19.3518L11.0307 22.6455Z" fill="white"/>
</g>
<defs>
<clipPath id="clip0_240_11066">
<rect width="32" height="32" fill="white"/>
</clipPath>
</defs>
</svg>
